<?xml version="1.0" encoding="utf-8"?>
<!-- Generator: Adobe Illustrator 16.0.0, SVG Export Plug-In . SVG Version: 6.00 Build 0)  -->
<!DOCTYPE svg PUBLIC "-//W3C//DTD SVG 1.1//EN" "http://www.w3.org/Graphics/SVG/1.1/DTD/svg11.dtd">
<svg version="1.1" id="Layer_1" xmlns="http://www.w3.org/2000/svg" xmlns:xlink="http://www.w3.org/1999/xlink" x="0px" y="0px"
	 width="50px" height="45px" viewBox="0 0 50 45" enable-background="new 0 0 50 45" xml:space="preserve">
<path fill="#003974" d="M41.682,6.396l-0.123-0.979l-0.802-0.563c-4.432-3.121-10.009-4.847-15.688-4.847
	c-5.678,0-11.255,1.727-15.687,4.847L8.579,5.418L8.458,6.396C8.44,6.563,7.97,10.553,8.126,15.594
	c0.212,6.943,1.495,12.306,3.794,15.965c2.668,4.229,5.466,7.643,8.337,10.163c2.244,1.967,3.74,2.668,3.906,2.742l0.905,0.407
	l0.905-0.407c0.167-0.074,1.662-0.775,3.906-2.742c2.872-2.521,5.68-5.944,8.338-10.163c2.298-3.649,3.582-9.022,3.795-15.965
	C42.169,10.553,41.698,6.572,41.682,6.396z"/>
<path fill="#FFFFFF" d="M40.396,6.553L40.35,6.147l-0.332-0.24c-4.22-2.973-9.53-4.607-14.949-4.616
	c-5.42,0-10.729,1.643-14.949,4.616l-0.333,0.24L9.742,6.553c-0.019,0.167-0.479,4.054-0.323,9.003
	c0.212,6.703,1.421,11.854,3.601,15.308c6.241,9.898,11.458,12.327,11.68,12.428l0.379,0.167l0.378-0.167
	c0.221-0.101,5.438-2.529,11.68-12.428c2.18-3.453,3.388-8.604,3.604-15.308C40.877,10.616,40.415,6.72,40.396,6.553z"/>
<path fill="#003974" d="M39.484,6.665c-3.944-2.78-8.968-4.442-14.416-4.45c-5.447,0-10.47,1.67-14.413,4.45
	c0,0-1.902,15.723,3.13,23.711c6.158,9.776,11.283,12.076,11.283,12.076s5.115-2.3,11.276-12.076
	C41.374,22.388,39.484,6.665,39.484,6.665z"/>
<g>
	<path fill="#FFFFFF" d="M16.233,5.446l1.431-0.601l2.419,2.715l0.01-0.008L19.768,3.95L21.2,3.351l1.958,4.615l-0.952,0.407
		l-1.384-3.269l-0.01,0.01l0.248,3.749l-0.783,0.333l-2.502-2.761l-0.01,0.008l1.368,3.242l-0.952,0.406L16.233,5.446z"/>
	<path fill="#FFFFFF" d="M24.368,3.118L25.466,3.1l0.083,5.014l-1.099,0.019L24.368,3.118z"/>
	<path fill="#FFFFFF" d="M29.148,4.578l-1.43-0.453l0.277-0.886l3.914,1.229l-0.275,0.887l-1.432-0.453l-1.228,3.896l-1.053-0.333
		L29.148,4.578z"/>
</g>
<g>
	<path fill="#FFFFFF" d="M18.476,29.618l1.368,0.719c0.757,0.397,0.793,1.035,0.535,1.525c-0.259,0.491-0.804,0.822-1.56,0.425
		l-0.702-0.37l-0.573,1.089l-0.665-0.349L18.476,29.618z M18.393,31.392l0.518,0.275c0.313,0.166,0.619,0.24,0.821-0.147
		c0.204-0.388-0.036-0.599-0.351-0.766l-0.518-0.277L18.393,31.392z"/>
	<path fill="#FFFFFF" d="M22.41,31.171c1.035,0.24,1.458,1.153,1.238,2.142c-0.223,0.959-1.008,1.596-2.041,1.356
		c-1.034-0.241-1.459-1.153-1.238-2.115C20.591,31.559,21.375,30.931,22.41,31.171z M21.745,34.05
		c0.655,0.157,1.035-0.35,1.163-0.904c0.14-0.582,0.018-1.199-0.636-1.356c-0.656-0.157-1.036,0.348-1.172,0.933
		C20.969,33.274,21.09,33.894,21.745,34.05z"/>
	<path fill="#FFFFFF" d="M24.118,31.568l0.757-0.01l0.046,2.795l1.672-0.026l0.01,0.636l-2.429,0.039L24.118,31.568z"/>
	<path fill="#FFFFFF" d="M26.62,31.455l0.748-0.119l0.555,3.379l-0.749,0.12L26.62,31.455z"/>
	<path fill="#FFFFFF" d="M30.203,31.667c-0.157-0.305-0.555-0.442-0.904-0.314c-0.639,0.233-0.685,0.86-0.481,1.423
		c0.194,0.537,0.628,0.998,1.266,0.767c0.434-0.155,0.572-0.543,0.472-0.988l0.683-0.249c0.212,0.833-0.155,1.542-0.95,1.829
		c-0.998,0.358-1.857-0.178-2.188-1.108c-0.345-0.962-0.021-1.911,0.976-2.271c0.711-0.26,1.461-0.054,1.81,0.664L30.203,31.667z"/>
	<path fill="#FFFFFF" d="M30.571,30.254l2.133-1.42l0.352,0.526l-1.503,1.006l0.404,0.609l1.386-0.923l0.323,0.49l-1.386,0.922
		l0.472,0.701l1.532-1.024l0.352,0.525l-2.161,1.441L30.571,30.254z"/>
</g>
<circle fill="#FFFFFF" cx="25.069" cy="19.406" r="10.046"/>
<circle fill="#A5D4EA" cx="25.069" cy="19.405" r="9.279"/>
<polygon fill="#FFFFFF" points="32.381,25.454 31.209,26.82 28.817,28.149 27.024,28.964 24.737,28.964 22.696,28.684 
	19.824,27.595 17.96,25.907 17.571,25.388 "/>
<path fill="#BCBEC0" d="M25.061,14.125v3.841h-4.35v-0.554l0.443-0.767l-0.083-0.351c0,0-0.074-0.129,0.11-0.286
	c0.184-0.157,0.664-0.499,0.664-0.499l0.693-0.646c0,0,0.01-0.167,0.213-0.295c0.203-0.129,1.55-0.379,1.55-0.379L25.061,14.125z"/>
<path fill="#BCBEC0" d="M25.061,14.125v3.841h4.348v-0.554l-0.441-0.767l0.081-0.351c0,0,0.076-0.129-0.11-0.286
	s-0.665-0.499-0.665-0.499l-0.692-0.646c0,0-0.009-0.167-0.212-0.295c-0.204-0.129-1.551-0.379-1.551-0.379L25.061,14.125z"/>
<g>
	<g>
		<defs>
			<circle id="SVGID_1_" cx="25.069" cy="19.405" r="9.279"/>
		</defs>
		<clipPath id="SVGID_2_">
			<use xlink:href="#SVGID_1_"  overflow="visible"/>
		</clipPath>
		<rect x="14.534" y="18.464" clip-path="url(#SVGID_2_)" fill="#BCBEC0" width="25.725" height="6.923"/>
	</g>
</g>
<g>
	<g>
		<defs>
			<circle id="SVGID_3_" cx="25.069" cy="19.405" r="9.279"/>
		</defs>
		<clipPath id="SVGID_4_">
			<use xlink:href="#SVGID_3_"  overflow="visible"/>
		</clipPath>
		<g clip-path="url(#SVGID_4_)">
			<path fill="#003974" d="M15.549,20.635c0.094,0,0.176-0.074,0.176-0.167c0-0.092-0.074-0.166-0.176-0.166
				c-0.018,0-0.026,0-0.045,0.008v-0.063h-0.703v0.063c-0.018,0-0.027-0.008-0.045-0.008c-0.092,0-0.176,0.074-0.176,0.166
				c0,0.093,0.074,0.167,0.176,0.167c0.055,0,0.102-0.019,0.129-0.055h0.018c-0.008,0.212-0.063,1.865-0.092,3.204h-0.028
				c-0.037,0-0.064,0.045-0.064,0.102c0,0.037,0.009,0.066,0.027,0.083c-0.055,0.018-0.083,0.047-0.083,0.073
				c0,0.073,0.212,0.14,0.479,0.14c0.267,0,0.481-0.066,0.481-0.14c0-0.026-0.028-0.056-0.083-0.073
				c0.018-0.017,0.027-0.046,0.027-0.083c0-0.057-0.027-0.102-0.064-0.102h-0.028c-0.027-1.33-0.083-2.983-0.092-3.204h0.018
				C15.449,20.616,15.494,20.635,15.549,20.635z"/>
			<polygon fill="#6D6E71" points="25.069,24.024 15.153,24.024 15.153,24.706 25.069,24.706 34.976,24.706 34.976,24.024 			"/>
			<polygon fill="#6D6E71" points="25.069,25.05 15.153,25.05 15.153,25.731 25.069,25.731 34.976,25.731 34.976,25.05 			"/>
			<rect x="14.746" y="19.406" fill="#6D6E71" width="20.627" height="0.924"/>
			<path fill="#6D6E71" d="M25.069,14.337c0.785,0,1.625,0.074,2.318,0.231v-0.037c-0.223-0.277-0.711-0.507-1.329-0.619v-0.064
				c0-0.093-0.443-0.167-0.989-0.167l0,0l0,0l0,0l0,0c-0.545,0-0.987,0.074-0.987,0.167v0.055c-0.619,0.121-1.108,0.341-1.33,0.618
				v0.037C23.445,14.412,24.275,14.337,25.069,14.337"/>
			<polygon fill="#6D6E71" points="33.195,19.139 33.195,17.92 30.007,17.92 30.007,17.791 20.12,17.791 20.12,17.92 16.935,17.92 
				16.935,19.139 			"/>
			<g>
				<path fill="#FFFFFF" d="M25.069,15.788"/>
				<path fill="#6D6E71" d="M25.069,15.788c-2.465,0-4.46,0.406-4.46,0.905c0,0.063,0.038,0.139,0.112,0.194v0.664h8.697v-0.664
					c0.074-0.065,0.11-0.13,0.11-0.194C29.519,16.193,27.525,15.788,25.069,15.788"/>
			</g>
			<g>
				<path fill="#6D6E71" d="M25.069,15.557c0.138,0,2.577,0.008,3.888,0.443v-0.047c0.045-0.055,0.064-0.11,0.064-0.165
					c0-0.139-0.139-0.269-0.378-0.388l0,0c-0.304-0.471-1.793-0.841-3.575-0.841l0,0c-1.782,0-3.268,0.36-3.573,0.841l0,0
					c-0.24,0.119-0.378,0.249-0.378,0.388c0,0.055,0.018,0.11,0.064,0.165V16C22.492,15.565,24.921,15.557,25.069,15.557
					L25.069,15.557z"/>
			</g>
			<rect x="23.952" y="16.442" fill="#BCBEC0" width="2.233" height="0.489"/>
			<path fill="#6D6E71" d="M17.534,20.635c0.092,0,0.176-0.074,0.176-0.167c0-0.092-0.074-0.166-0.176-0.166
				c-0.018,0-0.026,0-0.045,0.008v-0.063h-0.703v0.063c-0.018,0-0.026-0.008-0.045-0.008c-0.092,0-0.175,0.074-0.175,0.166
				c0,0.093,0.073,0.167,0.175,0.167c0.055,0,0.101-0.019,0.129-0.055h0.018c-0.008,0.212-0.065,1.865-0.092,3.204h-0.028
				c-0.037,0-0.064,0.045-0.064,0.102c0,0.037,0.009,0.066,0.027,0.083c-0.055,0.018-0.083,0.047-0.083,0.073
				c0,0.073,0.213,0.14,0.48,0.14c0.268,0,0.479-0.066,0.479-0.14c0-0.026-0.027-0.056-0.082-0.073
				c0.019-0.017,0.027-0.046,0.027-0.083c0-0.057-0.027-0.102-0.064-0.102h-0.028c-0.028-1.33-0.083-2.983-0.092-3.204h0.018
				C17.433,20.616,17.479,20.635,17.534,20.635z"/>
			<path fill="#6D6E71" d="M19.51,20.635c0.094,0,0.176-0.074,0.176-0.167c0-0.092-0.074-0.166-0.176-0.166
				c-0.018,0-0.028,0-0.046,0.008v-0.063h-0.701v0.063c-0.018,0-0.028-0.008-0.046-0.008c-0.092,0-0.176,0.074-0.176,0.166
				c0,0.093,0.074,0.167,0.176,0.167c0.054,0,0.102-0.019,0.128-0.055h0.018c-0.008,0.212-0.064,1.865-0.092,3.204h-0.026
				c-0.038,0-0.065,0.045-0.065,0.102c0,0.037,0.008,0.066,0.028,0.083c-0.056,0.018-0.083,0.047-0.083,0.073
				c0,0.073,0.212,0.14,0.479,0.14c0.268,0,0.48-0.066,0.48-0.14c0-0.026-0.028-0.056-0.083-0.073
				c0.018-0.017,0.028-0.046,0.028-0.083c0-0.057-0.028-0.102-0.065-0.102h-0.028c-0.026-1.33-0.083-2.983-0.092-3.204h0.019
				C19.418,20.616,19.464,20.635,19.51,20.635z"/>
			<path fill="#6D6E71" d="M21.496,20.635c0.093,0,0.176-0.074,0.176-0.167c0-0.092-0.074-0.166-0.176-0.166
				c-0.018,0-0.028,0-0.046,0.008v-0.063h-0.703v0.063c-0.018,0-0.026-0.008-0.045-0.008c-0.093,0-0.175,0.074-0.175,0.166
				c0,0.093,0.074,0.167,0.175,0.167c0.055,0,0.102-0.019,0.128-0.055h0.018c-0.008,0.212-0.062,1.865-0.092,3.204h-0.028
				c-0.037,0-0.064,0.045-0.064,0.102c0,0.037,0.01,0.066,0.028,0.083c-0.056,0.018-0.083,0.047-0.083,0.073
				c0,0.073,0.213,0.14,0.481,0.14c0.267,0,0.481-0.066,0.481-0.14c0-0.026-0.029-0.056-0.083-0.073
				c0.018-0.017,0.026-0.046,0.026-0.083c0-0.057-0.026-0.102-0.064-0.102h-0.028c-0.028-1.33-0.084-2.983-0.092-3.204h0.018
				C21.394,20.616,21.44,20.635,21.496,20.635z"/>
			<path fill="#6D6E71" d="M23.481,20.635c0.092,0,0.176-0.074,0.176-0.167c0-0.092-0.074-0.166-0.176-0.166
				c-0.018,0-0.026,0-0.046,0.008v-0.063h-0.703v0.063c-0.019,0-0.027-0.008-0.045-0.008c-0.093,0-0.176,0.074-0.176,0.166
				c0,0.093,0.074,0.167,0.176,0.167c0.055,0,0.101-0.019,0.128-0.055h0.018c-0.008,0.212-0.064,1.865-0.092,3.204h-0.028
				c-0.036,0-0.064,0.045-0.064,0.102c0,0.037,0.01,0.066,0.028,0.083c-0.056,0.018-0.083,0.047-0.083,0.073
				c0,0.073,0.212,0.14,0.481,0.14c0.268,0,0.479-0.066,0.479-0.14c0-0.026-0.028-0.056-0.082-0.073
				c0.018-0.017,0.026-0.046,0.026-0.083c0-0.057-0.026-0.102-0.064-0.102h-0.028c-0.028-1.33-0.083-2.983-0.092-3.204h0.018
				C23.379,20.616,23.425,20.635,23.481,20.635z"/>
			<path fill="#6D6E71" d="M25.466,20.635c0.092,0,0.175-0.074,0.175-0.167c0-0.092-0.074-0.166-0.175-0.166
				c-0.019,0-0.028,0-0.046,0.008v-0.063h-0.703v0.063c-0.018,0-0.028-0.008-0.046-0.008c-0.092,0-0.176,0.074-0.176,0.166
				c0,0.093,0.076,0.167,0.176,0.167c0.056,0,0.102-0.019,0.13-0.055h0.018c-0.01,0.212-0.064,1.865-0.092,3.204h-0.028
				c-0.036,0-0.064,0.045-0.064,0.102c0,0.037,0.01,0.066,0.028,0.083c-0.056,0.018-0.083,0.047-0.083,0.073
				c0,0.073,0.212,0.14,0.481,0.14c0.268,0,0.479-0.066,0.479-0.14c0-0.026-0.028-0.056-0.083-0.073
				c0.018-0.017,0.028-0.046,0.028-0.083c0-0.057-0.028-0.102-0.064-0.102h-0.028c-0.028-1.33-0.083-2.983-0.093-3.204h0.02
				C25.364,20.616,25.41,20.635,25.466,20.635z"/>
			<path fill="#6D6E71" d="M27.441,20.635c0.094,0,0.177-0.074,0.177-0.167c0-0.092-0.073-0.166-0.177-0.166
				c-0.02,0-0.026,0-0.045,0.008v-0.063h-0.702v0.063c-0.019,0-0.028-0.008-0.048-0.008c-0.093,0-0.174,0.074-0.174,0.166
				c0,0.093,0.074,0.167,0.174,0.167c0.058,0,0.104-0.019,0.13-0.055h0.019c-0.009,0.212-0.064,1.865-0.091,3.204h-0.028
				c-0.039,0-0.063,0.045-0.063,0.102c0,0.037,0.008,0.066,0.024,0.083c-0.054,0.018-0.083,0.047-0.083,0.073
				c0,0.073,0.216,0.14,0.48,0.14c0.271,0,0.481-0.066,0.481-0.14c0-0.026-0.028-0.056-0.084-0.073
				c0.02-0.017,0.029-0.046,0.029-0.083c0-0.057-0.029-0.102-0.064-0.102h-0.028c-0.029-1.33-0.084-2.983-0.094-3.204h0.021
				C27.349,20.616,27.396,20.635,27.441,20.635z"/>
			<path fill="#6D6E71" d="M29.428,20.635c0.091,0,0.175-0.074,0.175-0.167c0-0.092-0.074-0.166-0.175-0.166
				c-0.02,0-0.028,0-0.048,0.008v-0.063h-0.702v0.063c-0.018,0-0.024-0.008-0.044-0.008c-0.094,0-0.178,0.074-0.178,0.166
				c0,0.093,0.074,0.167,0.178,0.167c0.054,0,0.101-0.019,0.128-0.055h0.02c-0.01,0.212-0.064,1.865-0.094,3.204H28.66
				c-0.036,0-0.065,0.045-0.065,0.102c0,0.037,0.01,0.066,0.029,0.083c-0.055,0.018-0.084,0.047-0.084,0.073
				c0,0.073,0.211,0.14,0.481,0.14c0.268,0,0.48-0.066,0.48-0.14c0-0.026-0.029-0.056-0.084-0.073
				c0.02-0.017,0.027-0.046,0.027-0.083c0-0.057-0.027-0.102-0.065-0.102h-0.025c-0.029-1.33-0.084-2.983-0.094-3.204h0.02
				C29.325,20.616,29.372,20.635,29.428,20.635z"/>
			<path fill="#6D6E71" d="M31.412,20.635c0.091,0,0.174-0.074,0.174-0.167c0-0.092-0.073-0.166-0.174-0.166
				c-0.017,0-0.026,0-0.046,0.008v-0.063h-0.701v0.063c-0.02,0-0.029-0.008-0.048-0.008c-0.091,0-0.174,0.074-0.174,0.166
				c0,0.093,0.073,0.167,0.174,0.167c0.058,0,0.101-0.019,0.131-0.055h0.02c-0.01,0.212-0.066,1.865-0.093,3.204h-0.029
				c-0.035,0-0.064,0.045-0.064,0.102c0,0.037,0.01,0.066,0.029,0.083c-0.056,0.018-0.084,0.047-0.084,0.073
				c0,0.073,0.211,0.14,0.481,0.14c0.265,0,0.479-0.066,0.479-0.14c0-0.026-0.027-0.056-0.084-0.073
				c0.019-0.017,0.028-0.046,0.028-0.083c0-0.057-0.028-0.102-0.064-0.102h-0.028c-0.026-1.33-0.082-2.983-0.092-3.204h0.017
				C31.312,20.616,31.356,20.635,31.412,20.635z"/>
			<path fill="#6D6E71" d="M33.396,20.635c0.094,0,0.178-0.074,0.178-0.167c0-0.092-0.074-0.166-0.178-0.166
				c-0.017,0-0.026,0-0.043,0.008v-0.063h-0.701v0.063c-0.02,0-0.029-0.008-0.05-0.008c-0.091,0-0.173,0.074-0.173,0.166
				c0,0.093,0.072,0.167,0.173,0.167c0.057,0,0.103-0.019,0.132-0.055h0.019c-0.01,0.212-0.067,1.865-0.094,3.204h-0.026
				c-0.037,0-0.064,0.045-0.064,0.102c0,0.037,0.01,0.066,0.027,0.083c-0.057,0.018-0.084,0.047-0.084,0.073
				c0,0.073,0.213,0.14,0.479,0.14c0.271,0,0.48-0.066,0.48-0.14c0-0.026-0.026-0.056-0.084-0.073
				c0.02-0.017,0.031-0.046,0.031-0.083c0-0.057-0.031-0.102-0.064-0.102h-0.029c-0.027-1.33-0.083-2.983-0.093-3.204h0.02
				C33.296,20.616,33.343,20.635,33.396,20.635z"/>
			<path fill="#003974" d="M35.373,20.635c0.093,0,0.177-0.074,0.177-0.167c0-0.092-0.074-0.166-0.177-0.166
				c-0.02,0-0.029,0-0.046,0.008v-0.063h-0.701v0.063c-0.018,0-0.028-0.008-0.048-0.008c-0.092,0-0.176,0.074-0.176,0.166
				c0,0.093,0.075,0.167,0.176,0.167c0.058,0,0.104-0.019,0.131-0.055h0.017c-0.01,0.212-0.063,1.865-0.09,3.204h-0.018
				c-0.04,0-0.066,0.045-0.066,0.102c0,0.037,0.007,0.066,0.026,0.083c-0.053,0.018-0.082,0.047-0.082,0.073
				c0,0.073,0.213,0.14,0.479,0.14c0.271,0,0.48-0.066,0.48-0.14c0-0.026-0.029-0.056-0.083-0.073c0.02-0.017,0.03-0.046,0.03-0.083
				c0-0.057-0.03-0.102-0.066-0.102H35.31c-0.028-1.33-0.083-2.983-0.093-3.204h0.02C35.27,20.616,35.327,20.635,35.373,20.635z"/>
		</g>
	</g>
</g>
<g>
	<g>
		<path fill="#003974" d="M24.616,27.227L24.616,27.227c0.231,0.055,0.37,0.222,0.37,0.462c0,0.36-0.286,0.544-0.618,0.544
			c-0.332,0-0.619-0.176-0.619-0.544c0.01-0.23,0.148-0.417,0.36-0.462v-0.01c-0.184-0.054-0.296-0.193-0.296-0.396
			c0-0.305,0.278-0.451,0.545-0.451s0.545,0.137,0.545,0.451C24.911,27.033,24.801,27.173,24.616,27.227z M24.819,27.698
			c0-0.26-0.212-0.397-0.452-0.388c-0.25-0.01-0.453,0.128-0.453,0.388c0,0.267,0.204,0.407,0.453,0.407
			C24.616,28.096,24.819,27.965,24.819,27.698z M24.747,26.84c0-0.204-0.167-0.314-0.379-0.314c-0.194,0-0.388,0.11-0.388,0.314
			c0,0.24,0.194,0.341,0.388,0.333C24.562,27.173,24.747,27.061,24.747,26.84z"/>
		<path fill="#003974" d="M26.215,26.859c-0.029-0.196-0.167-0.334-0.379-0.334c-0.416,0-0.498,0.481-0.498,0.805h0.008
			c0.083-0.177,0.278-0.297,0.481-0.297c0.358,0,0.59,0.248,0.59,0.601c0,0.349-0.25,0.608-0.609,0.608
			c-0.434,0-0.627-0.26-0.627-0.951c0-0.211,0.056-0.895,0.637-0.895c0.313,0,0.516,0.156,0.555,0.47h-0.157V26.859z M25.374,27.634
			c0,0.248,0.138,0.462,0.453,0.462c0.257,0,0.433-0.214,0.433-0.462c0-0.26-0.156-0.471-0.433-0.471
			C25.54,27.163,25.374,27.374,25.374,27.634z"/>
	</g>
	<g>
		<path fill="#003974" d="M22.863,26.747c0.286-0.01,0.452-0.02,0.507-0.341h0.128v1.79h-0.156v-1.33h-0.471v-0.119H22.863z"/>
	</g>
	<g>
		<path fill="#003974" d="M26.62,26.747c0.287-0.01,0.453-0.02,0.508-0.341h0.13v1.79h-0.166v-1.33H26.62V26.747z"/>
	</g>
</g>
<path fill="#006838" d="M34.238,17.957C34.238,17.957,34.229,17.957,34.238,17.957C34.229,17.957,34.238,17.948,34.238,17.957
	C34.238,17.948,34.238,17.948,34.238,17.957c-0.248-1.56-0.876-2.982-1.783-4.183c-0.017,0.039-0.064,0.057-0.094,0.084
	c-0.025,0.073-0.035,0.138-0.035,0.212c0.035,0.028,0.064-0.018,0.094,0.018c0.019,0.075-0.104,0.13-0.049,0.204
	c0.029,0.111,0.157,0.121,0.224,0.194c0.018,0.074-0.084,0.111-0.047,0.185c0.029,0.12,0.176,0.102,0.221,0.202
	c0,0.047-0.035,0.084-0.084,0.075c-0.017-0.01-0.033-0.01-0.043,0.009c0.01,0.073-0.084,0.102-0.074,0.185
	c-0.01,0.018-0.039,0.008-0.057-0.01c-0.12-0.102,0.047-0.184,0.008-0.295c-0.044-0.008-0.099,0-0.128-0.037
	c0,0.083-0.036,0.185-0.127,0.23c-0.01,0.056,0.017,0.12-0.049,0.157c-0.092-0.027,0.02-0.119-0.018-0.184
	c0.007-0.046,0.057-0.055,0.047-0.102c-0.063-0.029-0.121,0.073-0.157-0.019c-0.029-0.01-0.056-0.018-0.074,0.009
	c-0.02,0.056,0.035,0.12,0,0.167c-0.062-0.01-0.14,0.055-0.203,0.018c-0.046,0.01-0.075,0.065-0.075,0.111
	c0.039,0.112-0.119,0.057-0.119,0.148c-0.01,0.056-0.056,0.129,0.01,0.176c0.074,0.055,0.202,0.018,0.212,0.157
	c0.036,0.065-0.054,0.083-0.063,0.147c-0.029,0.019-0.058-0.008-0.084-0.008c-0.046,0.047-0.074,0.129-0.147,0.129
	c-0.046-0.009-0.056-0.074-0.121-0.064c-0.083-0.01-0.035-0.204-0.148-0.093l-0.107,0.24c-0.066,0.056-0.076-0.083-0.132-0.028
	c-0.019,0.074-0.009,0.176,0.049,0.231c0.007,0.019,0.007,0.037-0.01,0.045c-0.123,0-0.094,0.167-0.222,0.176
	c-0.049,0.065-0.039,0.148-0.039,0.222c0.047,0.092,0.167,0.019,0.213,0.111c0.048,0.065-0.075,0.176,0.048,0.204
	c0.053,0.018,0.053,0.102,0.117,0.092c0.039,0,0.029-0.055,0.066-0.037c0.017,0.01,0.036,0.037,0.065,0.037
	c0.025-0.037,0.081-0.009,0.109,0.018c0.065,0.074,0.194,0.083,0.213,0.203c0.01,0.01,0.01,0.019,0.017,0.019
	c-0.084,0.028-0.045-0.111-0.128-0.074c-0.054,0.074-0.073,0.185-0.036,0.258c0,0.019-0.01,0.037-0.027,0.045
	c-0.131-0.045-0.167,0.148-0.297,0.102c-0.073,0.055-0.09,0.148-0.119,0.222c0.01,0.12,0.176,0.073,0.185,0.194
	c0.025,0.092-0.148,0.157-0.028,0.24c0.054,0.037,0.028,0.128,0.093,0.147c0.036,0.01,0.055-0.045,0.084-0.009
	c0.017,0.019,0.026,0.055,0.054,0.064c0.047-0.027,0.093,0.02,0.113,0.057c0.033,0.101,0.173,0.157,0.146,0.295
	c0.026,0.119,0.147,0.037,0.211,0.101c0.073,0.018,0.121-0.045,0.187-0.027c0.035,0.009,0.074,0.037,0.107,0.055
	c-0.007,0.047,0,0.092,0.021,0.129c0,0.018-0.01,0.039-0.027,0.047c-0.13-0.047-0.166,0.148-0.297,0.102
	c-0.073,0.055-0.091,0.147-0.117,0.222c0.01,0.119,0.174,0.074,0.184,0.194c0.026,0.092-0.149,0.158-0.027,0.239
	c0.054,0.038,0.027,0.13,0.092,0.148c0.036,0.009,0.056-0.047,0.082-0.01c0.019,0.019,0.028,0.056,0.058,0.064
	c0.044-0.026,0.093,0.019,0.109,0.056c0.036,0.102,0.175,0.157,0.148,0.295c0.026,0.12,0.148,0.036,0.213,0.093
	c0.072,0.019,0.117-0.047,0.185-0.028c0.046,0.008,0.082,0.046,0.129,0.073c0,0.019-0.01,0.037-0.01,0.056
	c-0.01,0.018-0.029,0.036-0.047,0.028c-0.091-0.092-0.214,0.065-0.313-0.028c-0.091,0.018-0.146,0.093-0.204,0.157
	c-0.036,0.111,0.12,0.138,0.084,0.259c-0.01,0.092-0.194,0.083-0.129,0.204c0.025,0.055-0.029,0.129,0.025,0.175
	c0.029,0.027,0.077-0.018,0.084,0.027c0.01,0.028,0,0.056,0.02,0.083c0.054-0.008,0.073,0.055,0.073,0.102
	c-0.01,0.11,0.094,0.212,0.01,0.333c-0.029,0.12,0.12,0.092,0.156,0.175c0.055,0.046,0.129,0.01,0.178,0.055
	c0.034,0.029,0.063,0.094,0.1,0.139v0.01c-0.01,0.084-0.09,0.121-0.155,0.147c-0.084,0.019-0.067,0.111-0.058,0.167l0.123,0.065
	c0.08,0.137-0.113,0.184-0.113,0.313c-0.045,0.009-0.084,0.074-0.127,0.02c-0.02-0.076,0.062-0.131,0.117-0.168
	c0.029-0.055-0.045-0.083-0.074-0.11c-0.043-0.01-0.082-0.037-0.127-0.01c-0.02,0-0.039,0.028-0.029,0.055
	c0.02,0.01,0.029,0.018,0.057,0.01c0.027,0,0.073,0.018,0.063,0.055c0,0.037-0.046,0.047-0.073,0.066
	c-0.057,0-0.101-0.019-0.146-0.056c-0.038,0-0.058,0.056-0.077,0.092c-0.035,0.066,0.02,0.111,0.067,0.147
	c0,0.057-0.067,0.047-0.084,0.075c0,0.036,0.026,0.046,0.046,0.063c0.01,0.074-0.046,0.139-0.074,0.213
	c0.045,0.074-0.029,0.147-0.036,0.213c0.074,0.036,0.091-0.057,0.14-0.083c0.025-0.028,0.081-0.047,0.108,0
	c0.01,0.056-0.054,0.056-0.073,0.1c-0.01,0.04-0.017,0.084,0.029,0.104c0.093-0.047,0.138,0.094,0.229,0.084
	c0.045-0.04-0.01-0.094,0.01-0.141c0.019-0.047,0.045-0.12,0.109-0.11c0.112,0.02,0.059,0.12,0.075,0.194
	c0.008,0.037,0.057,0.066,0.091,0.073c0.083,0.027,0.021,0.101,0.05,0.167c0.007,0.007,0.023,0.017,0.033,0.026
	c0.814-1.384,1.285-2.99,1.285-4.717C34.348,18.917,34.312,18.427,34.238,17.957z M31.089,16.285c0.046,0,0.11-0.037,0.14,0.018
	c-0.01,0.029-0.02,0.075-0.063,0.075C31.125,16.387,31.043,16.342,31.089,16.285z M31.246,16.895
	c-0.037,0.01-0.102-0.018-0.131-0.045c-0.01-0.037-0.017-0.075,0-0.111c0.029-0.019,0.057-0.009,0.074,0.01
	C31.209,16.794,31.263,16.839,31.246,16.895z M31.412,18.28c-0.046,0-0.101-0.055-0.12-0.094c0.01-0.036,0-0.092,0.036-0.118
	c0.038-0.01,0.058,0.008,0.074,0.037C31.421,18.16,31.459,18.233,31.412,18.28z M31.532,17.716c-0.046-0.008-0.12-0.092-0.046-0.129
	c0.046,0.019,0.129,0,0.139,0.074C31.596,17.689,31.576,17.726,31.532,17.716z M31.783,16.332c-0.02,0-0.049,0-0.058-0.029
	c0-0.008,0-0.008,0-0.018c0.028,0.01,0.058,0.01,0.084,0.018C31.8,16.313,31.793,16.323,31.783,16.332z M31.817,15.962
	c-0.008-0.028-0.018-0.047-0.054-0.028c-0.01,0.01-0.02,0.028-0.02,0.036c0.01-0.026,0.02-0.045,0.039-0.055
	c0.017,0.01,0.044,0.01,0.034,0.037V15.962z M32.048,15.741c-0.017,0-0.017-0.009-0.025-0.019c0.009-0.009,0.009-0.027,0.025-0.019
	l0.01,0.019C32.058,15.722,32.058,15.741,32.048,15.741z M32.132,19.905c-0.045,0-0.101-0.055-0.119-0.092
	c0.01-0.037,0-0.093,0.035-0.12c0.039-0.01,0.059,0.008,0.075,0.037C32.142,19.776,32.181,19.85,32.132,19.905z M32.326,17.56
	c-0.01,0-0.01,0.01-0.02,0.01s-0.02-0.01-0.026-0.019C32.297,17.541,32.316,17.55,32.326,17.56z M32.297,18.621
	c0.02,0.019,0.029,0.047,0.029,0.075c0,0.019-0.02,0.037-0.039,0.027c-0.007-0.008-0.007-0.018-0.017-0.027
	C32.287,18.678,32.254,18.613,32.297,18.621z M32.197,17.883c-0.017-0.01-0.046-0.018-0.046-0.047c0-0.026,0.036-0.055,0.063-0.055
	c0.029,0.01,0.049,0.028,0.039,0.055C32.244,17.873,32.215,17.883,32.197,17.883z M32.254,19.333
	c-0.05-0.009-0.122-0.092-0.05-0.129c0.05,0.018,0.132,0,0.141,0.073C32.316,19.306,32.297,19.342,32.254,19.333z M32.42,17.912
	c0,0.018-0.02,0.018-0.029,0.026c-0.046,0-0.029-0.065,0.01-0.065C32.4,17.893,32.42,17.893,32.42,17.912z M32.585,15.962
	c-0.018,0.008-0.037,0.008-0.057,0.019c-0.054-0.011-0.128-0.047-0.108-0.111c0.025-0.057,0.091-0.018,0.128,0
	C32.585,15.889,32.612,15.925,32.585,15.962z M32.704,18.853c-0.02-0.01-0.029-0.038-0.029-0.056c0.02,0,0.049,0,0.067-0.009
	C32.733,18.807,32.714,18.825,32.704,18.853z M32.519,21.346c-0.044-0.02-0.063-0.093-0.063-0.139
	c0.02-0.038,0.039-0.083,0.083-0.093c0.039,0,0.047,0.037,0.047,0.065C32.577,21.234,32.585,21.318,32.519,21.346z M32.798,23.515
	c-0.02,0.02-0.056,0.02-0.084,0.01c-0.02-0.01-0.02-0.037-0.02-0.056c0.029-0.073,0.113-0.12,0.168-0.063
	C32.862,23.442,32.826,23.487,32.798,23.515z M33.519,16.48c0,0-0.01,0-0.01,0.008c-0.01-0.008-0.01-0.008-0.02-0.018
	C33.499,16.471,33.509,16.48,33.519,16.48z M32.853,18.566c0,0.028,0.01,0.055,0.02,0.083c-0.01,0.009-0.02,0.009-0.029,0.019
	c-0.01-0.01-0.026-0.019-0.026-0.028C32.826,18.603,32.826,18.576,32.853,18.566z M32.843,18.732c-0.026-0.01-0.055,0-0.074,0.019
	c0-0.01,0.01-0.019,0.01-0.029c0.038,0,0.064,0,0.094,0C32.872,18.723,32.862,18.732,32.843,18.732z M32.853,16.064
	c0-0.009-0.01-0.009-0.01-0.018c0.01,0,0.02-0.028,0.039-0.01v0.019C32.882,16.055,32.872,16.055,32.853,16.064z M32.916,14.809
	c0-0.037-0.008-0.083,0.029-0.102c0.036,0,0.044,0.026,0.054,0.055c0,0.028-0.018,0.065-0.034,0.083
	C32.945,14.835,32.916,14.827,32.916,14.809z M32.908,20.847c-0.01,0.019-0.017,0.029-0.026,0.047l-0.01-0.01
	c-0.039-0.037-0.074-0.139,0.01-0.139c0.026,0.028,0.073,0.046,0.09,0.074C32.945,20.819,32.926,20.837,32.908,20.847z
	 M32.965,15.325c0.007-0.008,0.017-0.018,0.034-0.018c0.021,0.01,0.057,0.01,0.066,0.028C33.039,15.325,32.999,15.325,32.965,15.325
	z M32.989,20.32c0.03-0.018-0.018-0.083,0.04-0.083c0.02,0.019,0.026,0.047,0.026,0.073c0,0.019-0.017,0.037-0.036,0.029
	C32.999,20.339,32.989,20.32,32.989,20.32z M33.213,23.672c-0.057,0.009-0.121-0.046-0.164,0c-0.02-0.01-0.04-0.027-0.029-0.046
	c0.036-0.111,0.146-0.12,0.221-0.166l0.056,0.055C33.323,23.589,33.25,23.626,33.213,23.672z M33.323,15.418
	c-0.02,0.037-0.027,0.083-0.045,0.11c-0.019-0.01-0.056,0-0.073-0.028c0.008-0.027,0.025-0.045,0.045-0.074
	c0.01-0.008,0.028-0.018,0.036-0.018C33.304,15.4,33.323,15.408,33.323,15.418C33.333,15.408,33.323,15.418,33.323,15.418z
	 M33.509,22.454c-0.049,0.018-0.082-0.019-0.092-0.047c-0.012-0.027-0.012-0.055,0.02-0.082c0.033,0.027,0.062,0.045,0.101,0.037
	c0.007,0.008,0.017,0.008,0.026,0.018C33.573,22.407,33.527,22.425,33.509,22.454z M33.537,20.219c0-0.018,0.007-0.036,0.036-0.036
	l0,0C33.563,20.191,33.554,20.209,33.537,20.219z M34.222,19.627c-0.021-0.008-0.058,0-0.084-0.008v-0.01
	c0.01-0.01,0.017-0.028,0.026-0.046l0.017-0.009c0.031,0,0.058-0.01,0.084-0.028c-0.01,0.028-0.02,0.056-0.036,0.083
	C34.229,19.619,34.229,19.627,34.222,19.627z"/>
<g>
	<path fill="#006838" d="M16.98,23.848c-0.018-0.047-0.063-0.047-0.1-0.054c0.027,0.054,0.055,0.101,0.082,0.157
		C16.98,23.911,16.999,23.885,16.98,23.848z"/>
	<path fill="#006838" d="M19.556,15.325c-0.036-0.073-0.074-0.157-0.156-0.194c-0.13,0.065-0.204-0.11-0.315-0.045
		c-0.018,0-0.036-0.018-0.036-0.038c0.028-0.082-0.018-0.184-0.083-0.249c-0.092-0.019-0.018,0.112-0.11,0.102l-0.12-0.083
		c0.01-0.037,0.046-0.092,0.083-0.063c0.018-0.021,0.026-0.047,0.036-0.076c0.018-0.036,0.046,0.01,0.084,0
		c0.064-0.036,0.018-0.11,0.064-0.157c0.092-0.092-0.082-0.12-0.074-0.212c-0.008-0.111,0.147-0.102,0.138-0.222
		c-0.036-0.063-0.074-0.147-0.146-0.184c-0.122,0.065-0.186-0.111-0.296-0.036c-0.02,0-0.029-0.019-0.038-0.037
		c0.018-0.083-0.02-0.176-0.083-0.24c-0.083-0.019-0.018,0.11-0.101,0.092l-0.231-0.157c-0.167-0.047-0.018,0.11-0.083,0.167
		c-0.065,0.019-0.037,0.082-0.074,0.121c-0.065,0.045-0.139-0.02-0.204-0.039c-0.028,0.019-0.037,0.057-0.074,0.057
		c-0.018-0.018-0.036-0.028-0.065-0.038c-1.182,1.561-1.883,3.5-1.883,5.614c0,1.562,0.388,3.029,1.062,4.322
		c0.055-0.027,0.11-0.073,0.175-0.065c0.046-0.026,0.055-0.092,0.028-0.128c-0.056-0.084-0.175-0.092-0.204-0.194
		c0-0.092,0-0.167,0.019-0.248c-0.019-0.057-0.074,0-0.12,0c-0.074-0.047-0.148-0.121-0.139-0.205
		c0.065-0.01,0.129-0.091,0.204-0.037c0.102-0.092,0.092-0.24,0.11-0.36c-0.037-0.046-0.037-0.102-0.092-0.147
		c-0.037,0.027-0.073,0.056-0.11,0.064l0.101-0.147c0-0.055,0.038-0.092,0.075-0.121c0.056,0.065,0.045,0.176,0.139,0.222
		c0.064,0,0.166,0.027,0.194-0.046c0.008-0.018,0.019-0.037,0.037-0.055c0.102,0,0.018,0.102,0.055,0.157l0.047,0.139
		c0.008,0.055-0.102,0.102-0.037,0.147c0.064-0.008,0.137-0.121,0.194-0.027c0,0.074,0.037,0.129,0.082,0.166
		c0.065-0.009,0.13-0.121,0.195-0.027c0.055,0.008,0.092-0.037,0.119-0.065c-0.026-0.129-0.239-0.092-0.166-0.259
		c0.055-0.083-0.121-0.166,0-0.222c0.047,0,0.092-0.027,0.139,0c0.064,0.083,0.018,0.232,0.165,0.25
		c0.019,0.018,0.019,0.037,0.037,0.045c0.046,0,0.074-0.027,0.093-0.063c0.018-0.065-0.065-0.13,0.018-0.167
		c0.037-0.018,0.065-0.055,0.074-0.092c0-0.073-0.065-0.167,0.037-0.204c0.065-0.026,0.102,0.037,0.13,0.084
		c0.019,0.037-0.018,0.11,0.037,0.139c0.092-0.019,0.11-0.157,0.212-0.129c0.047-0.028,0.02-0.075,0.01-0.102
		c-0.028-0.037-0.092-0.018-0.092-0.083c0.018-0.046,0.083-0.036,0.11-0.018c0.046,0.018,0.093,0.102,0.147,0.055
		c-0.018-0.065-0.11-0.12-0.074-0.204c-0.036-0.063-0.111-0.11-0.12-0.194c0.008-0.026,0.038-0.037,0.028-0.073
		c-0.028-0.028-0.083-0.009-0.092-0.056c0.036-0.046,0.083-0.102,0.036-0.157c-0.026-0.028-0.056-0.073-0.092-0.073
		c-0.036,0.045-0.083,0.063-0.139,0.082c-0.036-0.009-0.073-0.009-0.092-0.045c-0.009-0.037,0.027-0.056,0.056-0.065
		c0.018,0,0.036-0.008,0.046-0.018c0.008-0.028-0.02-0.047-0.038-0.047c-0.055-0.018-0.083,0.019-0.129,0.037
		c-0.028,0.038-0.092,0.083-0.055,0.13c0.055,0.019,0.147,0.055,0.147,0.139c-0.037,0.065-0.082,0.008-0.129,0.008
		c-0.028-0.128-0.222-0.138-0.167-0.285l0.102-0.092c-0.008-0.066,0-0.158-0.092-0.158c-0.073-0.01-0.157-0.028-0.185-0.111
		c-0.009-0.045-0.046-0.083-0.019-0.128c0.029-0.065,0.111-0.037,0.139-0.102c-0.008-0.074,0.01-0.157,0.083-0.185
		c0.073-0.018,0.065-0.101,0.065-0.157c0-0.027-0.01-0.045-0.019-0.064c0.027-0.028,0.056-0.047,0.092-0.028
		c0.019,0.028,0,0.065,0,0.102c0,0.028-0.055,0.037-0.018,0.065l0.212-0.102c0.147,0.046,0.139-0.157,0.204-0.231
		c0.036-0.056,0.11-0.036,0.165-0.083c0.01-0.092,0.167-0.092,0.112-0.203c-0.102-0.092-0.028-0.221-0.056-0.323
		c-0.008-0.037,0-0.112,0.056-0.112c0.02-0.027,0-0.055,0.01-0.082c0-0.047,0.054-0.01,0.072-0.039
		c0.047-0.055-0.026-0.11-0.008-0.175c0.046-0.129-0.13-0.083-0.166-0.176c-0.056-0.1,0.102-0.165,0.036-0.267
		c-0.064-0.046-0.138-0.11-0.23-0.11c-0.083,0.11-0.23-0.019-0.305,0.091c-0.018,0.009-0.037,0-0.056-0.018
		c0-0.018-0.008-0.037-0.018-0.047c0.038-0.037,0.074-0.083,0.111-0.102c0.055-0.027,0.12,0.019,0.184-0.009
		c0.046-0.074,0.186-0.018,0.194-0.139c-0.056-0.129,0.064-0.212,0.083-0.323c0.01-0.037,0.046-0.101,0.092-0.082
		c0.028-0.019,0.028-0.057,0.038-0.076c0.026-0.045,0.054,0.011,0.092-0.008c0.064-0.037,0.018-0.12,0.064-0.167
		c0.092-0.101-0.082-0.129-0.074-0.221c-0.008-0.12,0.156-0.111,0.148-0.231c-0.036-0.074-0.074-0.157-0.156-0.194
		c-0.131,0.064-0.204-0.111-0.315-0.045c-0.018,0-0.037-0.019-0.037-0.037c0.009-0.046,0.009-0.083-0.01-0.13
		c0.028-0.026,0.066-0.065,0.094-0.073c0.054-0.028,0.118,0.018,0.184-0.01c0.046-0.074,0.185-0.019,0.194-0.139
		c-0.056-0.129,0.064-0.212,0.083-0.323c0.01-0.036,0.046-0.102,0.092-0.083c0.028-0.019,0.028-0.055,0.037-0.074
		c0.028-0.047,0.056,0.008,0.093-0.01c0.064-0.037,0.018-0.12,0.064-0.165c0.092-0.102-0.082-0.13-0.074-0.223
		C19.41,15.436,19.575,15.445,19.556,15.325z M18.79,14.393c0.01-0.028,0.029-0.055,0.056-0.046
		c0.037,0.018,0.046,0.065,0.056,0.102c-0.01,0.046-0.046,0.102-0.092,0.11C18.763,14.521,18.79,14.448,18.79,14.393z
		 M16.935,23.534c0.027,0.018,0.055,0.036,0.045,0.064c-0.008,0.019-0.018,0.019-0.037,0.019c-0.018-0.019-0.026-0.037-0.036-0.056
		C16.917,23.544,16.917,23.544,16.935,23.534z M16.187,18.778L16.187,18.778L16.187,18.778L16.187,18.778L16.187,18.778z
		 M16.316,20.348c-0.019-0.018-0.027-0.037-0.037-0.055c0.01,0,0.018,0.01,0.028,0.01C16.326,20.311,16.316,20.33,16.316,20.348z
		 M16.538,18.778C16.528,18.778,16.528,18.77,16.538,18.778c0-0.008,0-0.008,0.01-0.018c0.027,0.01,0.045,0.018,0.055,0.037
		C16.574,18.797,16.556,18.778,16.538,18.778z M16.823,20.09c-0.008-0.02-0.008-0.046-0.018-0.056
		c0.01-0.019,0.028-0.019,0.036-0.009c0,0.019,0.02,0.027,0.02,0.046C16.852,20.071,16.841,20.081,16.823,20.09z M16.999,15.889
		c0,0.018-0.009,0.026-0.019,0.045l0,0C16.98,15.907,16.99,15.897,16.999,15.889z M17.101,22.047
		c-0.009,0.046-0.055,0.084-0.092,0.092c-0.019-0.018-0.037-0.028-0.055-0.046c0.036-0.027,0.073-0.074,0.073-0.129
		c-0.018-0.01-0.028-0.029-0.037-0.037c0.029-0.018,0.047-0.028,0.074-0.028C17.137,21.909,17.092,22.001,17.101,22.047z
		 M17.193,15.962h-0.01l-0.008-0.01c-0.02-0.008-0.02-0.027-0.02-0.045c0.038-0.028,0.093,0,0.139,0
		C17.304,15.962,17.23,15.944,17.193,15.962z M17.442,15.584c0.027-0.045,0.065-0.121,0.129-0.074c0.055,0.046,0,0.129-0.045,0.166
		c-0.018,0-0.037,0.02-0.065,0.02C17.414,15.667,17.414,15.62,17.442,15.584z M17.608,18.168c0,0.018-0.018,0.028-0.027,0.039
		c-0.018,0-0.037-0.011-0.047-0.029c-0.008-0.028,0-0.046,0.01-0.064C17.59,18.095,17.59,18.142,17.608,18.168z M17.516,22.103
		c-0.047-0.047-0.11-0.092-0.12-0.158c0.018-0.028,0.037-0.055,0.073-0.036c0.039,0.055,0.057,0.12,0.094,0.184
		C17.553,22.111,17.526,22.103,17.516,22.103z M17.665,18.991c-0.029,0.019-0.065,0-0.093-0.02
		c-0.027-0.008-0.018-0.036-0.008-0.055c0.027-0.018,0.063-0.008,0.092,0C17.665,18.936,17.683,18.963,17.665,18.991z
		 M18.374,21.835c0.011,0.019,0.019,0.045-0.008,0.055c-0.028,0.019-0.055,0.027-0.083,0.009c-0.037-0.027-0.083-0.056-0.092-0.102
		C18.246,21.733,18.338,21.771,18.374,21.835z M17.978,14.236c0.027-0.01,0.064,0.009,0.074,0.037
		c0.008,0.028-0.019,0.046-0.029,0.055c-0.026,0-0.055-0.008-0.063-0.027C17.94,14.273,17.96,14.254,17.978,14.236z M17.94,16.378
		c0.038-0.01,0.047,0.027,0.057,0.055c0,0.018-0.019,0.026-0.029,0.037c-0.018,0-0.037-0.011-0.046-0.029
		C17.922,16.424,17.922,16.396,17.94,16.378z M17.793,13.949c0.028-0.009,0.055,0.02,0.073,0.038c0,0.027,0.01,0.055-0.018,0.064
		c-0.027,0.01-0.065-0.027-0.074-0.056C17.756,13.987,17.775,13.969,17.793,13.949z M17.849,14.42c-0.009-0.008-0.037,0-0.037-0.018
		c-0.008-0.019,0.01-0.019,0.018-0.037C17.867,14.347,17.896,14.412,17.849,14.42z M17.784,19.286
		c0.028-0.027,0.083,0.02,0.046,0.046c-0.018,0-0.036,0.01-0.046,0C17.765,19.324,17.784,19.306,17.784,19.286z M18.089,22.047
		c0.019,0.019,0,0.046-0.019,0.056c-0.055-0.047-0.11,0.018-0.167,0.028c-0.045-0.038-0.129-0.057-0.11-0.139l0.036-0.065
		C17.922,21.964,18.023,21.955,18.089,22.047z M17.812,16.97c-0.018-0.019,0-0.039,0.018-0.057c0.029-0.009,0.056,0.018,0.084,0.038
		c0,0.027,0.008,0.055-0.018,0.074C17.858,17.025,17.821,16.996,17.812,16.97z M17.867,17.347c0.037-0.018,0.065,0.047,0.019,0.056
		c-0.009-0.009-0.037,0-0.037-0.019C17.849,17.366,17.867,17.356,17.867,17.347z M17.95,19.175c-0.028,0.01-0.055,0.019-0.074,0
		c-0.018-0.018-0.018-0.047,0-0.073c0.027-0.019,0.064-0.019,0.083,0.008C17.978,19.128,17.96,19.167,17.95,19.175z M18.07,17.311
		c-0.028,0-0.055-0.009-0.065-0.027c-0.008-0.028,0.01-0.056,0.028-0.064c0.027-0.01,0.064,0.008,0.074,0.036
		C18.117,17.283,18.079,17.301,18.07,17.311z M18.135,18.16c-0.018,0.008-0.038-0.01-0.046-0.028c-0.01-0.027,0-0.063,0.009-0.083
		c0.046-0.02,0.02,0.056,0.046,0.074C18.144,18.132,18.144,18.15,18.135,18.16z M18.135,16.637
		c-0.065,0.018-0.038,0.082-0.075,0.128c-0.073,0.046-0.147-0.018-0.212-0.037c-0.019,0.009-0.027,0.037-0.045,0.045
		c-0.01-0.064-0.065-0.137,0.008-0.202c0.074-0.046,0.157-0.028,0.231-0.056c0.028,0.074,0.075,0.064,0.12,0.056
		C18.162,16.59,18.162,16.618,18.135,16.637z M18.753,18.825c0.046,0.01,0.074,0.046,0.102,0.074c0.008,0.047,0,0.111-0.036,0.148
		c-0.065-0.01-0.074-0.093-0.093-0.148C18.708,18.871,18.717,18.834,18.753,18.825z M18.449,20.052
		c0.037-0.018,0.055,0.028,0.037,0.046c-0.01,0.018-0.028,0.01-0.046,0.01C18.439,20.09,18.431,20.071,18.449,20.052z
		 M18.366,19.914c-0.01,0.02-0.037,0.01-0.046,0c-0.019-0.018-0.027-0.055-0.027-0.073c0.036-0.037,0.045,0.046,0.073,0.046
		C18.366,19.896,18.366,19.905,18.366,19.914z M18.348,18.511c0.083-0.01,0.073,0.102,0.037,0.139
		c-0.029,0.037-0.074,0.019-0.111,0.009C18.236,18.594,18.319,18.558,18.348,18.511z M18.292,15.27L18.292,15.27
		c0,0.01-0.01,0.019-0.019,0.029c-0.01,0-0.01,0-0.02,0C18.274,15.279,18.283,15.27,18.292,15.27z M18.283,15.676
		c-0.009-0.009-0.037,0-0.037-0.019c-0.01-0.018,0.008-0.027,0.018-0.037C18.292,15.602,18.329,15.667,18.283,15.676z
		 M18.882,17.375c0.01-0.029,0.029-0.055,0.065-0.047c0.036,0.028,0.046,0.074,0.065,0.112c-0.01,0.045-0.047,0.1-0.102,0.11
		C18.855,17.514,18.882,17.431,18.882,17.375z M18.385,15.557c-0.011-0.028,0.008-0.056,0.026-0.065
		c0.028-0.01,0.065,0.009,0.075,0.037c0.008,0.028-0.018,0.046-0.037,0.056C18.431,15.584,18.403,15.584,18.385,15.557z
		 M18.523,16.434c-0.02,0.008-0.038-0.01-0.047-0.028c-0.008-0.027,0-0.063,0.01-0.083c0.046-0.02,0.018,0.056,0.046,0.074
		C18.532,16.405,18.532,16.424,18.523,16.434z M18.708,16.876c0.074,0.028,0.018,0.12-0.028,0.139
		c-0.046,0.018-0.074-0.019-0.102-0.037C18.578,16.904,18.661,16.904,18.708,16.876z M18.605,14.051
		c-0.038,0.018-0.064-0.019-0.092-0.037c-0.01-0.074,0.074-0.074,0.12-0.102C18.698,13.94,18.643,14.032,18.605,14.051z
		 M19.067,15.289c-0.046,0.018-0.074-0.019-0.102-0.037c-0.008-0.074,0.083-0.074,0.129-0.102
		C19.169,15.178,19.114,15.27,19.067,15.289z M19.298,15.824c-0.056-0.036-0.028-0.12-0.028-0.175
		c0.008-0.029,0.028-0.055,0.064-0.047c0.038,0.028,0.046,0.074,0.065,0.111C19.381,15.75,19.344,15.814,19.298,15.824z"/>
</g>
</svg>
